<?xml version="1.0" standalone="no"?>
<!DOCTYPE svg PUBLIC "-//W3C//DTD SVG 1.1//EN" "http://www.w3.org/Graphics/SVG/1.1/DTD/svg11.dtd">
<svg xmlns="http://www.w3.org/2000/svg" xmlns:xlink="http://www.w3.org/1999/xlink" version="1.1" width="1080" height="1080" viewBox="0 0 1080 1080" xml:space="preserve">
<desc>Created with Fabric.js 5.2.4</desc>
<defs>
</defs>
<rect x="0" y="0" width="100%" height="100%" fill="transparent"/>
<g transform="matrix(1 0 0 1 540 540)" id="df1cede9-da37-4afa-a3cd-aa730262b9b4">
</g>
<g transform="matrix(1 0 0 1 540 540)" id="f58fd3bc-34a4-4320-9d62-0fd77a01a718">
<rect style="stroke: none; stroke-width: 1; stroke-dasharray: none; stroke-linecap: butt; stroke-dashoffset: 0; stroke-linejoin: miter; stroke-miterlimit: 4; fill: rgb(255,255,255); fill-rule: nonzero; opacity: 1; visibility: hidden;" vector-effect="non-scaling-stroke" x="-540" y="-540" rx="0" ry="0" width="1080" height="1080"/>
</g>
<g transform="matrix(-1 0 0 -1 535 384.81)">
<path style="stroke: none; stroke-width: 1; stroke-dasharray: none; stroke-linecap: butt; stroke-dashoffset: 0; stroke-linejoin: miter; stroke-miterlimit: 4; fill: rgb(0,138,255); fill-rule: nonzero; opacity: 1;" vector-effect="non-scaling-stroke" transform=" translate(-230.84, -148.89)" d="M 374.00642 142.18404 C 339.00694 167.98143000000002 288.27733 181.74527 244.60008 181.74527 C 183.35753 181.74527 128.22352 159.09392 86.51250999999999 121.42031 C 83.23540999999999 118.45779 86.17168 114.42041 90.10422 116.72748 C 135.11853 142.91812 190.77691 158.67445 248.27045 158.67445 C 287.045139 158.67445 329.69995 150.65208 368.92035 134.00439 C 374.84535999999997 131.48756 379.80034 137.88448 374.00642 142.18404" stroke-linecap="round"/>
</g>
<g transform="matrix(0 1 -1 0 680.94 413.53)">
<path style="stroke: none; stroke-width: 1; stroke-dasharray: none; stroke-linecap: butt; stroke-dashoffset: 0; stroke-linejoin: miter; stroke-miterlimit: 4; fill: rgb(0,138,255); fill-rule: nonzero; opacity: 1;" vector-effect="non-scaling-stroke" transform=" translate(-374.76, -139.25)" d="M 388.55678 125.53635 C 384.0999 119.82108 358.98417 122.83602 347.71093 124.17308 C 344.27651000000003 124.59255 343.75219000000004 121.60383 346.84576000000004 119.45403 C 366.84922000000006 105.37559 399.67272 109.4392 403.50038000000006 114.15823 C 407.32802000000004 118.90349 402.50414000000006 151.80564 383.7066500000001 167.50951 C 380.8228000000001 169.92146 378.0700300000001 168.63685 379.35467000000006 165.43838 C 383.5755700000001 154.89920999999998 393.03986000000003 131.27784 388.55678000000006 125.53635" stroke-linecap="round"/>
</g>
<g transform="matrix(1 0 0 1 404.3 502.32)">
<path style="stroke: none; stroke-width: 1; stroke-dasharray: none; stroke-linecap: butt; stroke-dashoffset: 0; stroke-linejoin: miter; stroke-miterlimit: 4; fill: rgb(34,31,31); fill-rule: nonzero; opacity: 1;" vector-effect="non-scaling-stroke" transform=" translate(-165.8, -53.31)" d="M 124.99883 105.45424 L 106.35866 105.45424 C 104.57593 105.32317 103.16021 103.98611 103.02912 102.282 L 103.02912 6.61676 C 103.02912 4.70293 104.62835000000001 3.1823400000000004 106.62083000000001 3.1823400000000004 L 124.00259000000001 3.1823400000000004 C 125.81157000000002 3.2609400000000006 127.25348000000001 4.65048 127.38458000000001 6.38079 L 127.38458000000001 18.88624 L 127.72540000000001 18.88624 C 132.26091 6.8002600000000015 140.78137 1.163640000000001 152.26436 1.163640000000001 C 163.93085000000002 1.163640000000001 171.21913 6.800260000000001 176.4625 18.88624 C 180.9718 6.8002600000000015 191.22258 1.163640000000001 202.20745 1.163640000000001 C 210.02007 1.163640000000001 218.56676 4.388310000000001 223.78391 11.624160000000002 C 229.68269999999998 19.67273 228.47672 31.36544 228.47672 41.616240000000005 L 228.45052 101.99363 C 228.45052 103.90746 226.85129 105.45424 224.85881 105.45424 L 206.24484 105.45424 C 204.38346 105.32317 202.8891 103.82881 202.8891 101.99363 L 202.8891 51.29025 C 202.8891 47.25286 203.25612 37.18559 202.36476000000002 33.35792 C 200.97527000000002 26.93481 196.80679 25.12583 191.40611 25.12583 C 186.89681000000002 25.12583 182.17778 28.14077 180.26395000000002 32.96468 C 178.35012000000003 37.78858 178.53364000000002 45.86335 178.53364000000002 51.29025 L 178.53364000000002 101.99363 C 178.53364000000002 103.90746 176.93441 105.45424 174.94193 105.45424 L 156.32798000000003 105.45424 C 154.44037000000003 105.32317 152.97222000000002 103.82881 152.97222000000002 101.99363 L 152.946 51.29025 C 152.946 40.620000000000005 154.70251 24.9161 141.46302 24.9161 C 128.0662 24.9161 128.59054 40.22673 128.59054 51.29025 L 128.59054 101.99363 C 128.59054 103.90746 126.99131 105.45424 124.99883 105.45424" stroke-linecap="round"/>
</g>
<g transform="matrix(1 0 0 1 708.35 503.31)">
<path style="stroke: none; stroke-width: 1; stroke-dasharray: none; stroke-linecap: butt; stroke-dashoffset: 0; stroke-linejoin: miter; stroke-miterlimit: 4; fill: rgb(34,31,31); fill-rule: nonzero; opacity: 1;" vector-effect="non-scaling-stroke" transform=" translate(-469.86, -54.31)" d="M 469.51439 1.16364 C 497.17316 1.16364 512.14297 24.9161 512.14297 55.11791 C 512.14297 84.29725 495.60013 107.44672 469.51439 107.44672 C 442.35373 107.44672 427.56741999999997 83.69426 427.56741999999997 54.09545 C 427.56741999999997 24.313109999999998 442.53725 1.163640000000001 469.51439 1.163640000000001 M 469.67168 20.6952 C 455.93406999999996 20.6952 455.0689 39.414010000000005 455.0689 51.08052 C 455.0689 62.77323 454.88538 87.73166 469.51439 87.73166 C 483.95986999999997 87.73166 484.64151 67.59714000000001 484.64151 55.327630000000006 C 484.64151 47.252860000000005 484.30069 37.60506000000001 481.86251 29.949730000000006 C 479.76516 23.290670000000006 475.5967 20.695200000000007 469.67168 20.695200000000007" stroke-linecap="round"/>
</g>
<g transform="matrix(1 0 0 1 802.85 502.32)">
<path style="stroke: none; stroke-width: 1; stroke-dasharray: none; stroke-linecap: butt; stroke-dashoffset: 0; stroke-linejoin: miter; stroke-miterlimit: 4; fill: rgb(34,31,31); fill-rule: nonzero; opacity: 1;" vector-effect="non-scaling-stroke" transform=" translate(-564.35, -53.31)" d="M 548.00762 105.45424 L 529.4461 105.45424 C 527.58469 105.32317 526.09033 103.82881 526.09033 101.99363 L 526.06413 6.302139999999994 C 526.2214299999999 4.545609999999995 527.76823 3.182339999999994 529.65584 3.182339999999994 L 546.93275 3.182339999999994 C 548.5581800000001 3.2609399999999944 549.8952400000001 4.3620999999999945 550.26229 5.856459999999994 L 550.26229 20.485449999999993 L 550.60309 20.485449999999993 C 555.82026 7.403249999999993 563.13474 1.1636399999999938 576.00721 1.1636399999999938 C 584.37038 1.1636399999999938 592.52383 4.178579999999994 597.7672 12.436879999999993 C 602.64353 20.09219999999999 602.64353 32.964679999999994 602.64353 42.21921 L 602.64353 102.43932 C 602.4338 104.11717999999999 600.8870000000001 105.45424 599.0518400000001 105.45424 L 580.35922 105.45424 C 578.65511 105.32317 577.2394 104.06475999999999 577.0559000000001 102.43932 L 577.0559000000001 50.47753 C 577.0559000000001 40.01701 578.26187 24.70636 565.38939 24.70636 C 560.8538900000001 24.70636 556.6854000000001 27.74753 554.61427 32.36168 C 551.9926 38.20805 551.65178 44.02819 551.65178 50.47753 L 551.65178 101.99363 C 551.62558 103.90746 550.00012 105.45424 548.00764 105.45424" stroke-linecap="round"/>
</g>
<g transform="matrix(1 0 0 1 527.79 502.51)">
<path style="stroke: none; stroke-width: 1; stroke-dasharray: none; stroke-linecap: butt; stroke-dashoffset: 0; stroke-linejoin: miter; stroke-miterlimit: 4; fill: rgb(34,31,31); fill-rule: nonzero; opacity: 1;" vector-effect="non-scaling-stroke" transform=" translate(-44.92, -53.51)" d="M 55.288261 59.75829 L 55.288261 55.7209 C 41.81279 55.7209 27.57705 58.60475 27.57705 74.49215 C 27.57705 82.54072 31.74552 87.99383999999999 38.90272 87.99383999999999 C 44.14609 87.99383999999999 48.8389 84.76916999999999 51.80142 79.52578999999999 C 55.471761 73.07643999999999 55.288261 67.02034999999998 55.288261 59.75828999999999 M 74.085731 105.19206999999999 C 72.85354099999999 106.29317999999999 71.070781 106.37182999999999 69.681291 105.63776999999999 C 63.494131 100.49927 62.393011 98.11353999999999 58.984821000000004 93.21098999999998 C 48.760250000000006 103.64528999999999 41.524420000000006 106.76507999999998 28.258680000000005 106.76507999999998 C 12.581000000000005 106.76507999999998 0.36397000000000546 97.09106999999999 0.36397000000000546 77.71683999999999 C 0.36397000000000546 62.58970999999999 8.569840000000006 52.286489999999986 20.236330000000006 47.25285999999999 C 30.356030000000004 42.79597999999999 44.48691000000001 42.00948999999999 55.288261000000006 40.77729999999999 L 55.288261000000006 38.36534999999999 C 55.288261000000006 33.93468999999999 55.629081000000006 28.69131999999999 53.03361100000001 24.86367999999999 C 50.75273000000001 21.429259999999992 46.40075000000001 20.01354999999999 42.573080000000004 20.01354999999999 C 35.46833 20.01354999999999 29.123840000000005 23.65768999999999 27.577050000000007 31.208139999999993 C 27.26244000000001 32.88602999999999 26.030250000000006 34.53768999999999 24.352380000000007 34.616339999999994 L 6.26276 32.67628 C 4.74218 32.33548 3.0643 31.10327 3.48377 28.76999 C 7.65225 6.85271 27.44596 0.24605 45.16856 0.24605 C 54.239571 0.24605 66.089581 2.658 73.246781 9.526810000000001 C 82.317821 17.99485 81.452651 29.29431 81.452651 41.590019999999996 L 81.452651 70.63828 C 81.452651 79.3685 85.07059100000001 83.19614 88.478781 87.91519 C 89.68475099999999 89.59304999999999 89.946921 91.61175 88.426341 92.87016 C 84.624901 96.04241 77.86096099999999 101.9412 74.138151 105.24452 L 74.085731 105.19202" stroke-linecap="round"/>
</g>
<g transform="matrix(1 0 0 1 283.42 502.51)">
<path style="stroke: none; stroke-width: 1; stroke-dasharray: none; stroke-linecap: butt; stroke-dashoffset: 0; stroke-linejoin: miter; stroke-miterlimit: 4; fill: rgb(34,31,31); fill-rule: nonzero; opacity: 1;" vector-effect="non-scaling-stroke" transform=" translate(-44.92, -53.51)" d="M 55.288261 59.75829 L 55.288261 55.7209 C 41.81279 55.7209 27.57705 58.60475 27.57705 74.49215 C 27.57705 82.54072 31.74552 87.99383999999999 38.90272 87.99383999999999 C 44.14609 87.99383999999999 48.8389 84.76916999999999 51.80142 79.52578999999999 C 55.471761 73.07643999999999 55.288261 67.02034999999998 55.288261 59.75828999999999 M 74.085731 105.19206999999999 C 72.85354099999999 106.29317999999999 71.070781 106.37182999999999 69.681291 105.63776999999999 C 63.494131 100.49927 62.393011 98.11353999999999 58.984821000000004 93.21098999999998 C 48.760250000000006 103.64528999999999 41.524420000000006 106.76507999999998 28.258680000000005 106.76507999999998 C 12.581000000000005 106.76507999999998 0.36397000000000546 97.09106999999999 0.36397000000000546 77.71683999999999 C 0.36397000000000546 62.58970999999999 8.569840000000006 52.286489999999986 20.236330000000006 47.25285999999999 C 30.356030000000004 42.79597999999999 44.48691000000001 42.00948999999999 55.288261000000006 40.77729999999999 L 55.288261000000006 38.36534999999999 C 55.288261000000006 33.93468999999999 55.629081000000006 28.69131999999999 53.03361100000001 24.86367999999999 C 50.75273000000001 21.429259999999992 46.40075000000001 20.01354999999999 42.573080000000004 20.01354999999999 C 35.46833 20.01354999999999 29.123840000000005 23.65768999999999 27.577050000000007 31.208139999999993 C 27.26244000000001 32.88602999999999 26.030250000000006 34.53768999999999 24.352380000000007 34.616339999999994 L 6.26276 32.67628 C 4.74218 32.33548 3.0643 31.10327 3.48377 28.76999 C 7.65225 6.85271 27.44596 0.24605 45.16856 0.24605 C 54.239571 0.24605 66.089581 2.658 73.246781 9.526810000000001 C 82.317821 17.99485 81.452651 29.29431 81.452651 41.590019999999996 L 81.452651 70.63828 C 81.452651 79.3685 85.07059100000001 83.19614 88.478781 87.91519 C 89.68475099999999 89.59304999999999 89.946921 91.61175 88.426341 92.87016 C 84.624901 96.04241 77.86096099999999 101.9412 74.138151 105.24452 L 74.085731 105.19202" stroke-linecap="round"/>
</g>
<g transform="matrix(1 0 0 1 625.7 481.83)" style="" id="628bc719-bf58-42b8-86d1-71bf035bac0a">
		<text xml:space="preserve" font-family="Raleway" font-size="200" font-style="normal" font-weight="400" style="stroke: none; stroke-width: 1; stroke-dasharray: none; stroke-linecap: butt; stroke-dashoffset: 0; stroke-linejoin: miter; stroke-miterlimit: 4; fill: rgb(0,0,0); fill-rule: nonzero; opacity: 1; white-space: pre;"><tspan x="-48.7" y="62.83">s</tspan></text>
</g>
</svg>